<?xml version="1.0" encoding="utf-8"?>
<!-- Generator: Adobe Illustrator 19.1.0, SVG Export Plug-In . SVG Version: 6.00 Build 0)  -->
<svg version="1.1" id="Layer_1" xmlns="http://www.w3.org/2000/svg" xmlns:xlink="http://www.w3.org/1999/xlink" x="0px" y="0px"
	 viewBox="0 0 800 600" style="enable-background:new 0 0 800 600;" xml:space="preserve">
<style type="text/css">
	.st0{display:none;fill:#FFFFFF;}
	.st1{display:none;}
	.st2{display:inline;fill:#FFFFFF;}
	.st3{fill:#FFFFFF;}
</style>
<g>
	<rect x="234.2" y="350.9" class="st0" width="306" height="36"/>
	<g>
		<g>
			<g class="st1">
				<path class="st2" d="M234.3,375.2v-12.7h3.4c3.9,0,4.7,2.1,4.7,3.9c0,1.3-0.5,2.3-1.3,3c-0.9,0.7-2.1,1-3.6,1h-1.3v4.8H234.3z
					 M237.3,368.7c1.2,0,2.1-0.2,2.6-0.6c0.5-0.3,0.7-0.9,0.7-1.7c0-0.7-0.2-1.3-0.6-1.6c-0.5-0.4-1.2-0.5-2.3-0.5h-1.4v4.4H237.3z"
					/>
				<path class="st2" d="M249,375.4c-1.8,0-3.2-0.6-4.2-1.8c-1-1.2-1.5-2.8-1.5-4.7c0-2,0.5-3.6,1.5-4.7c1-1.2,2.4-1.8,4.2-1.8
					c1.8,0,3.2,0.6,4.2,1.8c1,1.2,1.5,2.8,1.5,4.7c0,2-0.5,3.6-1.5,4.7C252.2,374.8,250.8,375.4,249,375.4z M249,364.1
					c-1.2,0-2.2,0.4-2.8,1.2c-0.7,0.8-1,2-1,3.6c0,1.6,0.3,2.8,1,3.6c0.7,0.8,1.6,1.2,2.8,1.2c1.3,0,2.2-0.4,2.8-1.2
					c0.7-0.8,1-2,1-3.6c0-1.6-0.3-2.8-1-3.6C251.2,364.5,250.3,364.1,249,364.1z"/>
				<path class="st2" d="M265.2,375.2l-2.6-9.3c-0.3,1-1.1,3.9-2.5,8.9l-0.1,0.4h-1.4l-3.5-12.7h1.9l2.2,7.9l0.2,0.8
					c0.1-0.4,0.2-0.8,0.3-1.2l2.1-7.5h1.7c0,0,2.5,8.7,2.5,8.8c0.3-1.3,1.1-4.1,2.3-8.5l0.1-0.4h1.9l-3.5,12.7H265.2z"/>
				<polygon class="st2" points="271.1,375.2 271.1,362.5 278.5,362.5 278.5,364.3 272.9,364.3 272.9,367.7 278.2,367.7 
					278.2,369.4 272.9,369.4 272.9,373.5 278.5,373.5 278.5,375.2 				"/>
				<path class="st2" d="M287.1,375.2l-3-5.1H282v5.1h-1.8v-12.7h3.3c1.6,0,2.7,0.3,3.5,0.9c0.8,0.6,1.2,1.6,1.2,2.8
					c0,0.9-0.2,1.7-0.7,2.3c-0.4,0.5-0.9,0.9-1.5,1.1l3.3,5.6H287.1z M283.7,368.4c0.9,0,1.5-0.2,2-0.6c0.4-0.3,0.6-0.9,0.6-1.6
					c0-0.7-0.2-1.2-0.6-1.6c-0.4-0.3-1.2-0.5-2.3-0.5H282v4.2H283.7z"/>
				<polygon class="st2" points="289.9,375.2 289.9,362.5 297.3,362.5 297.3,364.3 291.7,364.3 291.7,367.7 297,367.7 297,369.4 
					291.7,369.4 291.7,373.5 297.3,373.5 297.3,375.2 				"/>
				<path class="st2" d="M298.9,375.2v-12.7h3.7c2,0,3.6,0.5,4.6,1.6c1.1,1.1,1.6,2.6,1.6,4.6c0,2.1-0.6,3.7-1.7,4.8
					c-1.1,1.1-2.8,1.7-4.9,1.7H298.9z M302.2,373.5c3.2,0,4.8-1.5,4.8-4.7c0-1.5-0.4-2.7-1.1-3.4c-0.8-0.7-1.9-1.1-3.4-1.1h-1.7v9.3
					H302.2z"/>
				<path class="st2" d="M314.8,375.2v-12.7h3.7c1.6,0,2.7,0.3,3.5,0.8c0.8,0.6,1.2,1.5,1.2,2.6c0,0.8-0.3,1.5-0.8,2
					c-0.2,0.2-0.4,0.4-0.6,0.5c0.3,0.2,0.6,0.4,0.9,0.6c0.5,0.5,0.8,1.3,0.8,2.2c0,1.2-0.4,2.2-1.3,2.9c-0.8,0.7-1.9,1-3.4,1H314.8z
					 M318.9,373.5c2.4,0,2.8-1.1,2.8-2.1c0-0.8-0.3-1.9-2.9-1.9h-2.1v4.1H318.9z M318.7,367.7c1,0,1.7-0.2,2.1-0.5
					c0.4-0.3,0.5-0.7,0.5-1.3c0-0.6-0.2-1-0.6-1.3c-0.5-0.3-1.2-0.5-2.3-0.5h-1.9v3.5H318.7z"/>
				<polygon class="st2" points="327.3,375.2 327.3,370.4 323.1,362.5 325.2,362.5 328.3,368.4 331.4,362.5 333.4,362.5 
					329.2,370.3 329.2,375.2 				"/>
			</g>
		</g>
	</g>
</g>
<g>
	<g>
		<path class="st3" d="M233.2,324.2c0.4,0.2,0.7,0.4,1,0.6c0.3,0.3,0.5,0.6,0.6,1s0.2,0.8,0.2,1.2v14.6c0,0.1,0,0.3-0.1,0.3
			c-0.1,0.1-0.2,0.1-0.3,0.1H231c-0.1,0-0.2,0-0.3-0.1c-0.1-0.1-0.1-0.2-0.1-0.3v-13.2h-2.9v13.2c0,0.1,0,0.3-0.1,0.3
			c-0.1,0.1-0.2,0.1-0.3,0.1h-3.3c-0.1,0-0.3,0-0.3-0.1c-0.1-0.1-0.1-0.2-0.1-0.3v-13.2h-2.9v13.2c0,0.3-0.2,0.5-0.5,0.5h-3.6
			c-0.3,0-0.5-0.2-0.5-0.5v-17.1c0-0.3,0.2-0.5,0.5-0.5h15.6C232.5,323.9,232.9,324,233.2,324.2z"/>
		<path class="st3" d="M251.3,323.9c0.4,0,0.8,0.1,1.2,0.2c0.4,0.2,0.7,0.4,1,0.6c0.3,0.3,0.5,0.6,0.6,1s0.2,0.8,0.2,1.2v14.6
			c0,0.1,0,0.3-0.1,0.3c-0.1,0.1-0.2,0.1-0.3,0.1h-3.6c-0.1,0-0.3,0-0.3-0.1c-0.1-0.1-0.1-0.2-0.1-0.3v-4.6c0-0.1,0-0.3-0.1-0.3
			c-0.1-0.1-0.2-0.1-0.3-0.1h-5.1c-0.1,0-0.3,0-0.3,0.1c-0.1,0.1-0.1,0.2-0.1,0.3v4.6c0,0.3-0.2,0.5-0.5,0.5h-3.6
			c-0.3,0-0.5-0.2-0.5-0.5v-14.6c0-0.4,0.1-0.8,0.2-1.2c0.2-0.4,0.4-0.7,0.6-1c0.3-0.3,0.6-0.5,1-0.6c0.4-0.2,0.8-0.2,1.2-0.2H251.3
			z M249.7,332.5V328h-6.1v4.5H249.7z"/>
		<path class="st3" d="M270.6,324.1c0.1,0.1,0.1,0.2,0.1,0.3V339c0,0.4-0.1,0.8-0.2,1.2c-0.2,0.4-0.4,0.7-0.6,1
			c-0.3,0.3-0.6,0.5-1,0.6c-0.4,0.2-0.8,0.2-1.2,0.2h-7.8c-0.4,0-0.8-0.1-1.2-0.2c-0.4-0.2-0.7-0.4-1-0.6c-0.3-0.3-0.5-0.6-0.6-1
			c-0.2-0.4-0.2-0.8-0.2-1.2v-5.5c0-0.3,0.2-0.5,0.5-0.5h3.6c0.3,0,0.5,0.2,0.5,0.5v3.7c0,0.1,0,0.2,0.1,0.3
			c0.1,0.1,0.2,0.1,0.3,0.1h3.7c0.1,0,0.3,0,0.3-0.1c0.1-0.1,0.1-0.2,0.1-0.3v-12.7c0-0.1,0-0.3,0.1-0.3c0.1-0.1,0.2-0.1,0.3-0.1
			h3.6C270.3,323.9,270.5,324,270.6,324.1z"/>
		<path class="st3" d="M286.9,323.9c0.4,0,0.8,0.1,1.2,0.2c0.4,0.2,0.7,0.4,1,0.6c0.3,0.3,0.5,0.6,0.6,1s0.2,0.8,0.2,1.2v12
			c0,0.4-0.1,0.8-0.2,1.2c-0.2,0.4-0.4,0.7-0.6,1c-0.3,0.3-0.6,0.5-1,0.6c-0.4,0.2-0.8,0.2-1.2,0.2h-9.1c-0.4,0-0.8-0.1-1.2-0.2
			c-0.4-0.2-0.7-0.4-1-0.6c-0.3-0.3-0.5-0.6-0.6-1c-0.2-0.4-0.2-0.8-0.2-1.2v-12c0-0.4,0.1-0.8,0.2-1.2s0.4-0.7,0.6-1
			c0.3-0.3,0.6-0.5,1-0.6c0.4-0.2,0.8-0.2,1.2-0.2H286.9z M285.3,328.3h-6.1v9.3h6.1V328.3z"/>
		<path class="st3" d="M309.7,341.6c0.1,0.1,0.1,0.2,0,0.3c-0.1,0.1-0.1,0.1-0.3,0.1h-4.1c-0.1,0-0.3,0-0.4-0.1
			c-0.1-0.1-0.2-0.2-0.3-0.3l-2.7-4.9c0-0.1-0.1-0.1-0.2-0.1h-3.1c-0.1,0-0.1,0-0.1,0.1v4.8c0,0.3-0.2,0.5-0.5,0.5h-3.6
			c-0.3,0-0.5-0.2-0.5-0.5v-17.1c0-0.3,0.2-0.5,0.5-0.5h11.7c0.4,0,0.8,0.1,1.2,0.2c0.4,0.2,0.7,0.4,1,0.6c0.3,0.3,0.5,0.6,0.6,1
			c0.2,0.4,0.2,0.8,0.2,1.2v6.8c0,0.7-0.2,1.2-0.6,1.8c-0.4,0.5-0.9,0.9-1.5,1.1l-0.1,0c-0.1,0-0.1,0.1-0.1,0.2l0,0.1L309.7,341.6z
			 M304.6,328.1h-6.2v4.4h6.2V328.1z"/>
		<path class="st3" d="M334,337.6c0.1,0,0.2,0,0.3,0.1c0.1,0.1,0.1,0.2,0.1,0.3v3.4c0,0.1,0,0.3-0.1,0.3c-0.1,0.1-0.2,0.1-0.3,0.1
			h-11.1c-0.3,0-0.5-0.2-0.5-0.5v-17.1c0-0.3,0.2-0.5,0.5-0.5h3.6c0.3,0,0.5,0.2,0.5,0.5v12.7c0,0.1,0,0.2,0.1,0.3
			c0.1,0.1,0.2,0.1,0.3,0.1H334z"/>
		<path class="st3" d="M350.7,324.1c0.1,0.1,0.1,0.2,0.1,0.3v1.5v0.8v1c0,0.1,0,0.2-0.1,0.3c-0.1,0.1-0.2,0.1-0.3,0.1h-1.8h-5.4
			h-1.4c-0.1,0-0.1,0-0.1,0.1v2.8c0,0.1,0,0.1,0.1,0.1h7.4c0.1,0,0.2,0,0.3,0.1c0.1,0.1,0.1,0.2,0.1,0.3v2.6c0,0.1,0,0.3-0.1,0.3
			c-0.1,0.1-0.2,0.1-0.3,0.1h-7.4c-0.1,0-0.1,0-0.1,0.1v1.3v0v1.5c0,0.1,0,0.1,0.1,0.1h1.1h5.8h1.7c0.1,0,0.3,0,0.3,0.1
			c0.1,0.1,0.1,0.2,0.1,0.3v1v1.3v0.9c0,0.1,0,0.3-0.1,0.3c-0.1,0.1-0.2,0.1-0.3,0.1h-1.5h-9.8h-1.5c-0.3,0-0.5-0.2-0.5-0.5v-0.9
			v-15v-1.2c0-0.1,0-0.3,0.1-0.3c0.1-0.1,0.2-0.1,0.3-0.1h1.9h10.1h0.8C350.5,323.9,350.6,324,350.7,324.1z"/>
		<path class="st3" d="M367.1,323.9c0.4,0,0.8,0.1,1.2,0.2c0.4,0.2,0.7,0.4,1,0.6c0.3,0.3,0.5,0.6,0.6,1s0.2,0.8,0.2,1.2v14.6
			c0,0.1,0,0.3-0.1,0.3c-0.1,0.1-0.2,0.1-0.3,0.1H366c-0.1,0-0.3,0-0.3-0.1c-0.1-0.1-0.1-0.2-0.1-0.3v-4.6c0-0.1,0-0.3-0.1-0.3
			c-0.1-0.1-0.2-0.1-0.3-0.1H360c-0.1,0-0.3,0-0.3,0.1c-0.1,0.1-0.1,0.2-0.1,0.3v4.6c0,0.3-0.2,0.5-0.5,0.5h-3.6
			c-0.3,0-0.5-0.2-0.5-0.5v-14.6c0-0.4,0.1-0.8,0.2-1.2c0.2-0.4,0.4-0.7,0.6-1c0.3-0.3,0.6-0.5,1-0.6c0.4-0.2,0.8-0.2,1.2-0.2H367.1
			z M365.5,332.5V328h-6.1v4.5H365.5z"/>
		<path class="st3" d="M389.2,332.3c0.1,0.1,0.1,0.2,0.1,0.3v6.4c0,0.4-0.1,0.8-0.2,1.2c-0.2,0.4-0.4,0.7-0.6,1
			c-0.3,0.3-0.6,0.5-1,0.6c-0.4,0.2-0.8,0.2-1.2,0.2h-9.1c-0.4,0-0.8-0.1-1.2-0.2c-0.4-0.2-0.7-0.4-1-0.6c-0.3-0.3-0.5-0.6-0.6-1
			c-0.2-0.4-0.2-0.8-0.2-1.2v-12c0-0.4,0.1-0.8,0.2-1.2s0.4-0.7,0.6-1c0.3-0.3,0.6-0.5,1-0.6c0.4-0.2,0.8-0.2,1.2-0.2h10.7
			c0.1,0,0.3,0,0.3,0.1c0.1,0.1,0.1,0.2,0.1,0.3v3.4c0,0.1,0,0.3-0.1,0.3c-0.1,0.1-0.2,0.1-0.3,0.1h-8.6c-0.1,0-0.3,0-0.3,0.1
			c-0.1,0.1-0.1,0.2-0.1,0.3v8.4c0,0.1,0,0.2,0.1,0.3c0.1,0.1,0.2,0.1,0.3,0.1h5.1c0.1,0,0.2,0,0.3-0.1s0.1-0.2,0.1-0.3v-4.5
			c0-0.1,0-0.3,0.1-0.3c0.1-0.1,0.2-0.1,0.3-0.1h3.6C388.9,332.1,389.1,332.2,389.2,332.3z"/>
		<path class="st3" d="M408.2,324.1c0.1,0.1,0.1,0.2,0.1,0.3V339c0,0.4-0.1,0.8-0.2,1.2c-0.2,0.4-0.4,0.7-0.6,1
			c-0.3,0.3-0.6,0.5-1,0.6c-0.4,0.2-0.8,0.2-1.2,0.2h-9.1c-0.4,0-0.8-0.1-1.2-0.2c-0.4-0.2-0.7-0.4-1-0.6c-0.3-0.3-0.5-0.6-0.6-1
			c-0.2-0.4-0.2-0.8-0.2-1.2v-14.6c0-0.3,0.2-0.5,0.5-0.5h3.6c0.3,0,0.5,0.2,0.5,0.5v12.7c0,0.1,0,0.2,0.1,0.3
			c0.1,0.1,0.2,0.1,0.3,0.1h5.1c0.1,0,0.2,0,0.3-0.1s0.1-0.2,0.1-0.3v-12.7c0-0.1,0-0.3,0.1-0.3c0.1-0.1,0.2-0.1,0.3-0.1h3.6
			C408,323.9,408.1,324,408.2,324.1z"/>
		<path class="st3" d="M426.1,324.1c0.1,0.1,0.1,0.2,0.1,0.3v1.5v0.8v1c0,0.1,0,0.2-0.1,0.3c-0.1,0.1-0.2,0.1-0.3,0.1h-1.8h-5.4
			h-1.4c-0.1,0-0.1,0-0.1,0.1v2.8c0,0.1,0,0.1,0.1,0.1h7.4c0.1,0,0.2,0,0.3,0.1c0.1,0.1,0.1,0.2,0.1,0.3v2.6c0,0.1,0,0.3-0.1,0.3
			c-0.1,0.1-0.2,0.1-0.3,0.1h-7.4c-0.1,0-0.1,0-0.1,0.1v1.3v0v1.5c0,0.1,0,0.1,0.1,0.1h1.1h5.8h1.7c0.1,0,0.3,0,0.3,0.1
			c0.1,0.1,0.1,0.2,0.1,0.3v1v1.3v0.9c0,0.1,0,0.3-0.1,0.3c-0.1,0.1-0.2,0.1-0.3,0.1h-1.5h-9.8h-1.5c-0.3,0-0.5-0.2-0.5-0.5v-0.9
			v-15v-1.2c0-0.1,0-0.3,0.1-0.3c0.1-0.1,0.2-0.1,0.3-0.1h1.9h10.1h0.8C425.9,323.9,426,324,426.1,324.1z"/>
		<path class="st3" d="M453.8,323.9c0.1,0,0.3,0,0.3,0.1c0.1,0.1,0.1,0.2,0.1,0.3v17.1c0,0.1,0,0.3-0.1,0.3
			c-0.1,0.1-0.2,0.1-0.3,0.1h-3.6c-0.1,0-0.3,0-0.3-0.1c-0.1-0.1-0.1-0.2-0.1-0.3v-6c0-0.1,0-0.2-0.1-0.3c-0.1-0.1-0.2-0.1-0.3-0.1
			h-5.1c-0.1,0-0.3,0-0.3,0.1c-0.1,0.1-0.1,0.2-0.1,0.3v6c0,0.3-0.2,0.5-0.5,0.5h-3.6c-0.3,0-0.5-0.2-0.5-0.5v-17.1
			c0-0.3,0.2-0.5,0.5-0.5h3.6c0.3,0,0.5,0.2,0.5,0.5v5.8c0,0.3,0.2,0.5,0.5,0.5h5.1c0.1,0,0.2,0,0.3-0.1c0.1-0.1,0.1-0.2,0.1-0.3
			v-5.8c0-0.1,0-0.3,0.1-0.3c0.1-0.1,0.2-0.1,0.3-0.1H453.8z"/>
		<path class="st3" d="M470.5,323.9c0.4,0,0.8,0.1,1.2,0.2c0.4,0.2,0.7,0.4,1,0.6c0.3,0.3,0.5,0.6,0.6,1s0.2,0.8,0.2,1.2v14.6
			c0,0.1,0,0.3-0.1,0.3c-0.1,0.1-0.2,0.1-0.3,0.1h-3.6c-0.1,0-0.3,0-0.3-0.1c-0.1-0.1-0.1-0.2-0.1-0.3v-4.6c0-0.1,0-0.3-0.1-0.3
			c-0.1-0.1-0.2-0.1-0.3-0.1h-5.1c-0.1,0-0.3,0-0.3,0.1c-0.1,0.1-0.1,0.2-0.1,0.3v4.6c0,0.3-0.2,0.5-0.5,0.5h-3.6
			c-0.3,0-0.5-0.2-0.5-0.5v-14.6c0-0.4,0.1-0.8,0.2-1.2c0.2-0.4,0.4-0.7,0.6-1c0.3-0.3,0.6-0.5,1-0.6c0.4-0.2,0.8-0.2,1.2-0.2H470.5
			z M469,332.5V328h-6.1v4.5H469z"/>
		<path class="st3" d="M482.2,328.4c-0.1,0.1-0.1,0.2-0.1,0.3v8.4c0,0.1,0,0.2,0.1,0.3c0.1,0.1,0.2,0.1,0.3,0.1h8.3
			c0.1,0,0.3,0,0.3,0.1c0.1,0.1,0.1,0.2,0.1,0.3v3.4c0,0.1,0,0.3-0.1,0.3c-0.1,0.1-0.2,0.1-0.3,0.1h-5.4H481h-0.5
			c-0.4,0-0.8-0.1-1.2-0.2c-0.4-0.2-0.7-0.4-1-0.6c-0.3-0.3-0.5-0.6-0.6-1c-0.2-0.4-0.2-0.8-0.2-1.2v-0.5v-1.9v-6v-1.7v-2
			c0-0.4,0.1-0.8,0.2-1.2c0.2-0.4,0.4-0.7,0.6-1c0.3-0.3,0.6-0.5,1-0.6c0.4-0.2,0.8-0.2,1.2-0.2h0.5h9.8c0.1,0,0.3,0,0.3,0.1
			c0.1,0.1,0.1,0.2,0.1,0.3v3.4c0,0.1,0,0.3-0.1,0.3c-0.1,0.1-0.2,0.1-0.3,0.1h-8.3C482.4,328.3,482.3,328.4,482.2,328.4z"/>
		<path class="st3" d="M505.7,331.5c-0.1,0.1-0.1,0.1,0,0.2l6,9.9c0.1,0.1,0.1,0.2,0,0.3c-0.1,0.1-0.1,0.1-0.3,0.1h-4.3
			c-0.1,0-0.3,0-0.4-0.1c-0.1-0.1-0.2-0.2-0.3-0.3l-3.9-7c-0.1-0.1-0.1-0.1-0.1,0l-2.1,2.3c-0.1,0.1-0.2,0.2-0.2,0.4
			c-0.1,0.2-0.1,0.3-0.1,0.5v3.8c0,0.3-0.2,0.5-0.5,0.5H496c-0.3,0-0.5-0.2-0.5-0.5v-17.1c0-0.3,0.2-0.5,0.5-0.5h3.6
			c0.3,0,0.5,0.2,0.5,0.5v7.7l6.7-7.8c0.1-0.1,0.2-0.2,0.4-0.3c0.2-0.1,0.3-0.1,0.4-0.1h4.3c0.1,0,0.2,0,0.2,0.1
			c0,0.1,0,0.2-0.1,0.3L505.7,331.5z"/>
		<path class="st3" d="M519.6,341.5c0,0.3-0.2,0.5-0.5,0.5h-3.6c-0.3,0-0.5-0.2-0.5-0.5v-17.1c0-0.3,0.2-0.5,0.5-0.5h3.6
			c0.3,0,0.5,0.2,0.5,0.5V341.5z"/>
		<path class="st3" d="M537,324.2c0.4,0.2,0.7,0.4,1,0.6c0.3,0.3,0.5,0.6,0.6,1c0.2,0.4,0.2,0.8,0.2,1.2v14.6c0,0.1,0,0.3-0.1,0.3
			c-0.1,0.1-0.2,0.1-0.3,0.1h-3.6c-0.1,0-0.2,0-0.3-0.1c-0.1-0.1-0.1-0.2-0.1-0.3v-12.7c0-0.1,0-0.2-0.1-0.3s-0.2-0.1-0.3-0.1h-5.1
			c-0.1,0-0.3,0-0.3,0.1s-0.1,0.2-0.1,0.3v12.7c0,0.3-0.2,0.5-0.5,0.5h-3.6c-0.3,0-0.5-0.2-0.5-0.5v-17.1c0-0.3,0.2-0.5,0.5-0.5
			h11.7C536.3,323.9,536.7,324,537,324.2z"/>
		<path class="st3" d="M557.9,332.3c0.1,0.1,0.1,0.2,0.1,0.3v6.4c0,0.4-0.1,0.8-0.2,1.2c-0.2,0.4-0.4,0.7-0.6,1
			c-0.3,0.3-0.6,0.5-1,0.6c-0.4,0.2-0.8,0.2-1.2,0.2h-9.1c-0.4,0-0.8-0.1-1.2-0.2c-0.4-0.2-0.7-0.4-1-0.6c-0.3-0.3-0.5-0.6-0.6-1
			c-0.2-0.4-0.2-0.8-0.2-1.2v-12c0-0.4,0.1-0.8,0.2-1.2s0.4-0.7,0.6-1c0.3-0.3,0.6-0.5,1-0.6c0.4-0.2,0.8-0.2,1.2-0.2h10.7
			c0.1,0,0.3,0,0.3,0.1c0.1,0.1,0.1,0.2,0.1,0.3v3.4c0,0.1,0,0.3-0.1,0.3c-0.1,0.1-0.2,0.1-0.3,0.1h-8.6c-0.1,0-0.3,0-0.3,0.1
			c-0.1,0.1-0.1,0.2-0.1,0.3v8.4c0,0.1,0,0.2,0.1,0.3c0.1,0.1,0.2,0.1,0.3,0.1h5.1c0.1,0,0.2,0,0.3-0.1s0.1-0.2,0.1-0.3v-4.5
			c0-0.1,0-0.3,0.1-0.3c0.1-0.1,0.2-0.1,0.3-0.1h3.6C557.7,332.1,557.8,332.2,557.9,332.3z"/>
	</g>
</g>
<g id="Layer_2">
	<g>
		<path class="st3" d="M324.9,199.5c2.3,1,4.3,2.3,6,3.9s3,3.6,4.1,5.8c1,2.2,1.6,4.6,1.6,7.1V312c0,0.8-0.3,1.5-0.9,2.1
			c-0.6,0.6-1.3,0.9-2.2,0.9h-22.7c-0.9,0-1.6-0.3-2.1-0.9c-0.5-0.6-0.8-1.3-0.8-2.1v-87.3h-18.3V312c0,0.8-0.3,1.5-0.8,2.1
			c-0.5,0.6-1.3,0.9-2.1,0.9h-20.6c-0.9,0-1.6-0.3-2.2-0.9c-0.6-0.6-0.9-1.3-0.9-2.1v-87.3h-18.3V312c0,2-1,3-3.1,3h-22.5
			c-2.1,0-3.1-1-3.1-3V201c0-2,1-3,3.1-3h98.4C320.1,198,322.6,198.5,324.9,199.5z"/>
	</g>
	<g>
		<path class="st3" d="M435.4,286.5c0.9,0,1.7,0.3,2.2,0.9c0.6,0.6,0.9,1.4,0.9,2.3v22.1c0,0.9-0.3,1.6-0.9,2.2
			c-0.6,0.6-1.3,0.9-2.2,0.9h-77.7c-2.2,0-3.3-1.1-3.3-3.2V201.2c0-2.1,1.1-3.2,3.3-3.2h23.8c2.2,0,3.3,1.1,3.3,3.2v82.4
			c0,0.9,0.3,1.6,1,2.2c0.6,0.6,1.4,0.8,2.3,0.8H435.4z"/>
	</g>
	<g>
		<path class="st3" d="M554.8,198c0.9,0,1.7,0.3,2.3,0.9c0.6,0.6,1,1.4,1,2.3v110.6c0,0.9-0.3,1.6-1,2.2c-0.6,0.6-1.4,0.9-2.3,0.9
			h-24c-0.9,0-1.7-0.3-2.3-0.9c-0.6-0.6-1-1.4-1-2.2v-38.6c0-0.9-0.3-1.6-0.9-2.2c-0.6-0.6-1.3-0.8-2.3-0.8h-34.2
			c-0.9,0-1.7,0.3-2.3,0.8c-0.6,0.6-1,1.3-1,2.2v38.6c0,2.1-1.1,3.2-3.3,3.2h-23.9c-2.2,0-3.3-1.1-3.3-3.2V201.2
			c0-2.1,1.1-3.2,3.3-3.2h23.9c2.2,0,3.3,1.1,3.3,3.2v37.4c0,2.1,1.1,3.2,3.3,3.2h34.2c0.9,0,1.7-0.3,2.3-0.9
			c0.6-0.6,0.9-1.4,0.9-2.3v-37.4c0-0.9,0.3-1.6,1-2.3c0.6-0.6,1.4-0.9,2.3-0.9H554.8z"/>
	</g>
</g>
</svg>
